<?xml version="1.0" encoding="UTF-8" standalone="no"?>
<!DOCTYPE svg PUBLIC "-//W3C//DTD SVG 1.1//EN"
 "http://www.w3.org/Graphics/SVG/1.1/DTD/svg11.dtd">
<!-- Generated by graphviz version 2.26.3 (20100126.1600)
 -->
<!-- Title: models_diagram Pages: 1 -->
<svg width="3142pt" height="438pt"
 viewBox="0.00 0.00 3142.00 438.00" xmlns="http://www.w3.org/2000/svg" xmlns:xlink="http://www.w3.org/1999/xlink">
<g id="graph1" class="graph" transform="scale(1 1) rotate(0) translate(4 434)">
<title>models_diagram</title>
<polygon fill="white" stroke="white" points="-4,5 -4,-434 3139,-434 3139,5 -4,5"/>
<!-- _diagram_info -->
<g id="node1" class="node"><title>_diagram_info</title>
<text text-anchor="start" x="595" y="-413.8" font-family="Times Roman,serif" font-size="13.00">Models diagram</text>
<text text-anchor="start" x="595" y="-396.8" font-family="Times Roman,serif" font-size="13.00">Date: Dec 08 2012 &#45; 20:34</text>
<text text-anchor="start" x="595" y="-379.8" font-family="Times Roman,serif" font-size="13.00">Migration version: 104</text>
<text text-anchor="start" x="595" y="-362.8" font-family="Times Roman,serif" font-size="13.00">Generated by RailRoady 1.1.0</text>
<text text-anchor="start" x="595" y="-345.8" font-family="Times Roman,serif" font-size="13.00">http://railroady.prestonlee.com</text>
</g>
<!-- Page -->
<g id="node2" class="node"><title>Page</title>
<ellipse fill="none" stroke="black" cx="294" cy="-263" rx="34.8574" ry="18.3848"/>
<text text-anchor="middle" x="294" y="-259.4" font-family="Times Roman,serif" font-size="14.00">Page</text>
</g>
<!-- NotificationMailer -->
<g id="node3" class="node"><title>NotificationMailer</title>
<polygon fill="none" stroke="black" points="1278,-281 1142,-281 1142,-245 1278,-245 1278,-281"/>
<text text-anchor="middle" x="1210" y="-259.4" font-family="Times Roman,serif" font-size="14.00">NotificationMailer</text>
</g>
<!-- Theme -->
<g id="node4" class="node"><title>Theme</title>
<polygon fill="none" stroke="black" points="1394,-401 1330,-401 1330,-365 1394,-365 1394,-401"/>
<text text-anchor="middle" x="1362" y="-379.4" font-family="Times Roman,serif" font-size="14.00">Theme</text>
</g>
<!-- Category -->
<g id="node5" class="node"><title>Category</title>
<ellipse fill="none" stroke="black" cx="403" cy="-263" rx="56.0679" ry="18.3848"/>
<text text-anchor="middle" x="403" y="-259.4" font-family="Times Roman,serif" font-size="14.00">Category</text>
</g>
<!-- Category&#45;&gt;Category -->
<g id="edge6" class="edge"><title>Category&#45;&gt;Category</title>
<path fill="none" stroke="#a37f9a" d="M462.921,-269.381C471.351,-268.341 477,-266.215 477,-263 477,-260.078 472.332,-258.054 465.149,-256.93"/>
<ellipse fill="none" stroke="#a37f9a" cx="458.856" cy="-269.7" rx="4" ry="4"/>
<polygon fill="#a37f9a" stroke="#a37f9a" points="464.827,-256.9 455.28,-251.505 459.848,-256.443 454.869,-255.986 454.869,-255.986 454.869,-255.986 459.848,-256.443 454.457,-260.467 464.827,-256.9 464.827,-256.9"/>
<text text-anchor="middle" x="504.5" y="-259.4" font-family="Times Roman,serif" font-size="14.00">children</text>
</g>
<!-- Categorization -->
<g id="node8" class="node"><title>Categorization</title>
<ellipse fill="none" stroke="black" cx="84" cy="-95" rx="84.1457" ry="18.3848"/>
<text text-anchor="middle" x="84" y="-91.4" font-family="Times Roman,serif" font-size="14.00">Categorization</text>
</g>
<!-- Category&#45;&gt;Categorization -->
<g id="edge8" class="edge"><title>Category&#45;&gt;Categorization</title>
<path fill="none" stroke="#bb97c0" d="M365.624,-243.316C305.655,-211.734 188.346,-149.954 125.728,-116.976"/>
<ellipse fill="none" stroke="#bb97c0" cx="369.45" cy="-245.331" rx="4.00002" ry="4.00002"/>
<polygon fill="#bb97c0" stroke="#bb97c0" points="125.38,-116.792 118.629,-108.151 120.956,-114.463 116.532,-112.133 116.532,-112.133 116.532,-112.133 120.956,-114.463 114.435,-116.114 125.38,-116.792 125.38,-116.792"/>
</g>
<!-- Article -->
<g id="node13" class="node"><title>Article</title>
<ellipse fill="none" stroke="black" cx="628" cy="-187" rx="43.1335" ry="18.3848"/>
<text text-anchor="middle" x="628" y="-183.4" font-family="Times Roman,serif" font-size="14.00">Article</text>
</g>
<!-- Category&#45;&gt;Article -->
<g id="edge10" class="edge"><title>Category&#45;&gt;Article</title>
<path fill="none" stroke="#019e3a" d="M453.192,-246.932C487.801,-235.738 534.809,-220.307 576,-206 579.132,-204.912 582.365,-203.772 585.614,-202.614"/>
<polygon fill="#019e3a" stroke="#019e3a" points="452.839,-247.046 441.941,-245.836 448.081,-248.582 443.323,-250.118 443.323,-250.118 443.323,-250.118 448.081,-248.582 444.706,-254.401 452.839,-247.046 452.839,-247.046"/>
<polygon fill="#019e3a" stroke="#019e3a" points="585.916,-202.506 596.849,-203.354 590.62,-200.813 595.325,-199.12 595.325,-199.12 595.325,-199.12 590.62,-200.813 593.801,-194.886 585.916,-202.506 585.916,-202.506"/>
</g>
<!-- Notification -->
<g id="node6" class="node"><title>Notification</title>
<ellipse fill="none" stroke="black" cx="500" cy="-187" rx="67.1751" ry="18.3848"/>
<text text-anchor="middle" x="500" y="-183.4" font-family="Times Roman,serif" font-size="14.00">Notification</text>
</g>
<!-- TextFilter -->
<g id="node7" class="node"><title>TextFilter</title>
<ellipse fill="none" stroke="black" cx="1469" cy="-383" rx="56.7776" ry="18.3848"/>
<text text-anchor="middle" x="1469" y="-379.4" font-family="Times Roman,serif" font-size="14.00">TextFilter</text>
</g>
<!-- Content -->
<g id="node9" class="node"><title>Content</title>
<ellipse fill="none" stroke="black" cx="866" cy="-383" rx="51.1176" ry="18.3848"/>
<text text-anchor="middle" x="866" y="-379.4" font-family="Times Roman,serif" font-size="14.00">Content</text>
</g>
<!-- Content&#45;&gt;Page -->
<g id="edge2" class="edge"><title>Content&#45;&gt;Page</title>
<path fill="none" stroke="black" d="M849.385,-365.484C838.215,-354.938 822.551,-342.359 806,-336 751.937,-315.229 603.498,-324.948 546,-318 452.859,-306.745 427.915,-308.783 338,-282 332.099,-280.242 325.933,-277.913 320.148,-275.49"/>
</g>
<!-- Content&#45;&gt;Notification -->
<g id="edge12" class="edge"><title>Content&#45;&gt;Notification</title>
<path fill="none" stroke="#105af0" d="M842.938,-359.891C832.523,-350.875 819.529,-341.419 806,-336 729.724,-305.445 695.655,-354.422 622,-318 597.305,-305.789 548.304,-247.664 520.505,-213.075"/>
<ellipse fill="none" stroke="#105af0" cx="846.097" cy="-362.733" rx="4.00002" ry="4.00002"/>
<polygon fill="#105af0" stroke="#105af0" points="520.492,-213.059 517.767,-202.437 517.372,-209.152 514.251,-205.245 514.251,-205.245 514.251,-205.245 517.372,-209.152 510.735,-208.054 520.492,-213.059 520.492,-213.059"/>
</g>
<!-- Content&#45;&gt;Article -->
<g id="edge46" class="edge"><title>Content&#45;&gt;Article</title>
<path fill="none" stroke="black" d="M867.432,-364.336C867.85,-346.19 865.789,-318.701 852,-300 806.506,-238.299 717.691,-208.026 666.625,-195.132"/>
</g>
<!-- Trigger -->
<g id="node14" class="node"><title>Trigger</title>
<ellipse fill="none" stroke="black" cx="1088" cy="-95" rx="44.7575" ry="18.3848"/>
<text text-anchor="middle" x="1088" y="-91.4" font-family="Times Roman,serif" font-size="14.00">Trigger</text>
</g>
<!-- Content&#45;&gt;Trigger -->
<g id="edge20" class="edge"><title>Content&#45;&gt;Trigger</title>
<path fill="none" stroke="#3451dc" d="M894.239,-360.687C907.274,-349.138 922.033,-334.098 932,-318 968.92,-258.371 938.897,-224.09 981,-168 998.561,-144.606 1025.9,-126.138 1048.55,-113.631"/>
<ellipse fill="none" stroke="#3451dc" cx="891.035" cy="-363.452" rx="4.00002" ry="4.00002"/>
<polygon fill="#3451dc" stroke="#3451dc" points="1048.78,-113.507 1059.72,-112.774 1053.19,-111.155 1057.61,-108.803 1057.61,-108.803 1057.61,-108.803 1053.19,-111.155 1055.49,-104.832 1048.78,-113.507 1048.78,-113.507"/>
</g>
<!-- Redirect -->
<g id="node21" class="node"><title>Redirect</title>
<ellipse fill="none" stroke="black" cx="1073" cy="-263" rx="51.1176" ry="18.3848"/>
<text text-anchor="middle" x="1073" y="-259.4" font-family="Times Roman,serif" font-size="14.00">Redirect</text>
</g>
<!-- Content&#45;&gt;Redirect -->
<g id="edge18" class="edge"><title>Content&#45;&gt;Redirect</title>
<path fill="none" stroke="#697da4" d="M911.2,-366.018C939.936,-354.339 977.36,-337.457 1008,-318 1021.89,-309.179 1035.99,-297.631 1047.49,-287.394"/>
<polygon fill="#697da4" stroke="#697da4" points="911.095,-366.06 900.139,-365.598 906.453,-367.918 901.811,-369.776 901.811,-369.776 901.811,-369.776 906.453,-367.918 903.483,-373.954 911.095,-366.06 911.095,-366.06"/>
<polygon fill="#697da4" stroke="#697da4" points="1047.6,-287.292 1058.03,-283.897 1051.3,-283.93 1055,-280.567 1055,-280.567 1055,-280.567 1051.3,-283.93 1051.98,-277.237 1047.6,-287.292 1047.6,-287.292"/>
</g>
<!-- Feedback -->
<g id="node23" class="node"><title>Feedback</title>
<ellipse fill="none" stroke="black" cx="621" cy="-95" rx="56.0679" ry="18.3848"/>
<text text-anchor="middle" x="621" y="-91.4" font-family="Times Roman,serif" font-size="14.00">Feedback</text>
</g>
<!-- Content&#45;&gt;Feedback -->
<g id="edge56" class="edge"><title>Content&#45;&gt;Feedback</title>
<path fill="none" stroke="black" d="M870.728,-364.443C874.248,-347.336 877.44,-321.429 871,-300 845.244,-214.294 833.21,-183.47 760,-132 732.31,-112.533 718.697,-122.751 686,-114 678.391,-111.964 670.312,-109.692 662.531,-107.447"/>
</g>
<!-- Redirection -->
<g id="node28" class="node"><title>Redirection</title>
<ellipse fill="none" stroke="black" cx="1056" cy="-187" rx="65.9683" ry="18.3848"/>
<text text-anchor="middle" x="1056" y="-183.4" font-family="Times Roman,serif" font-size="14.00">Redirection</text>
</g>
<!-- Content&#45;&gt;Redirection -->
<g id="edge16" class="edge"><title>Content&#45;&gt;Redirection</title>
<path fill="none" stroke="#92790d" d="M905.166,-364.441C926.162,-353.125 951.451,-337.156 970,-318 996.461,-290.673 991.953,-275.685 1013,-244 1019.9,-233.618 1028.01,-222.599 1035.32,-213.044"/>
<ellipse fill="none" stroke="#92790d" cx="901.476" cy="-366.384" rx="4.00002" ry="4.00002"/>
<polygon fill="#92790d" stroke="#92790d" points="1035.36,-212.985 1045.04,-207.831 1038.42,-209.031 1041.48,-205.077 1041.48,-205.077 1041.48,-205.077 1038.42,-209.031 1037.93,-202.323 1035.36,-212.985 1035.36,-212.985"/>
</g>
<!-- User -->
<g id="node31" class="node"><title>User</title>
<ellipse fill="none" stroke="black" cx="635" cy="-263" rx="33.9411" ry="18.3848"/>
<text text-anchor="middle" x="635" y="-259.4" font-family="Times Roman,serif" font-size="14.00">User</text>
</g>
<!-- Content&#45;&gt;User -->
<g id="edge14" class="edge"><title>Content&#45;&gt;User</title>
<path fill="none" stroke="#266f95" d="M838.423,-359.221C828.553,-351.309 817.115,-342.791 806,-336 789.71,-326.047 783.293,-327.949 767,-318 755.922,-311.235 755.418,-306.174 744,-300 722.602,-288.431 696.91,-279.499 675.845,-273.311"/>
<polygon fill="#266f95" stroke="#266f95" points="838.566,-359.338 843.452,-369.156 842.435,-362.506 846.303,-365.674 846.303,-365.674 846.303,-365.674 842.435,-362.506 849.154,-362.192 838.566,-359.338 838.566,-359.338"/>
<polygon fill="#266f95" stroke="#266f95" points="675.84,-273.31 667.449,-266.249 671.03,-271.944 666.22,-270.578 666.22,-270.578 666.22,-270.578 671.03,-271.944 664.991,-274.907 675.84,-273.31 675.84,-273.31"/>
<text text-anchor="middle" x="809.5" y="-305.4" font-family="Times Roman,serif" font-size="14.00">notify_users</text>
</g>
<!-- PostType -->
<g id="node10" class="node"><title>PostType</title>
<ellipse fill="none" stroke="black" cx="1598" cy="-383" rx="53.9477" ry="18.3848"/>
<text text-anchor="middle" x="1598" y="-379.4" font-family="Times Roman,serif" font-size="14.00">PostType</text>
</g>
<!-- Resource -->
<g id="node11" class="node"><title>Resource</title>
<ellipse fill="none" stroke="black" cx="751" cy="-95" rx="55.8614" ry="18.3848"/>
<text text-anchor="middle" x="751" y="-91.4" font-family="Times Roman,serif" font-size="14.00">Resource</text>
</g>
<!-- Right -->
<g id="node12" class="node"><title>Right</title>
<ellipse fill="none" stroke="black" cx="1707" cy="-383" rx="36.977" ry="18.3848"/>
<text text-anchor="middle" x="1707" y="-379.4" font-family="Times Roman,serif" font-size="14.00">Right</text>
</g>
<!-- Profile -->
<g id="node27" class="node"><title>Profile</title>
<ellipse fill="none" stroke="black" cx="1707" cy="-263" rx="41.9273" ry="18.3848"/>
<text text-anchor="middle" x="1707" y="-259.4" font-family="Times Roman,serif" font-size="14.00">Profile</text>
</g>
<!-- Right&#45;&gt;Profile -->
<g id="edge22" class="edge"><title>Right&#45;&gt;Profile</title>
<path fill="none" stroke="#1add37" d="M1707,-354.236C1707,-335.315 1707,-310.647 1707,-291.732"/>
<polygon fill="#1add37" stroke="#1add37" points="1707,-354.25 1702.5,-364.25 1707,-359.25 1707,-364.25 1707,-364.25 1707,-364.25 1707,-359.25 1711.5,-364.25 1707,-354.25 1707,-354.25"/>
<polygon fill="#1add37" stroke="#1add37" points="1707,-291.618 1711.5,-281.618 1707,-286.618 1707,-281.618 1707,-281.618 1707,-281.618 1707,-286.618 1702.5,-281.618 1707,-291.618 1707,-291.618"/>
</g>
<!-- Article&#45;&gt;Categorization -->
<g id="edge34" class="edge"><title>Article&#45;&gt;Categorization</title>
<path fill="none" stroke="#9a2a3a" d="M589.244,-171.458C584.829,-170.102 580.352,-168.905 576,-168 444.353,-140.638 406.507,-172.835 274,-150 227.246,-141.943 175.62,-126.564 137.997,-114.112"/>
<ellipse fill="none" stroke="#9a2a3a" cx="593.283" cy="-172.788" rx="4.00001" ry="4.00001"/>
<polygon fill="#9a2a3a" stroke="#9a2a3a" points="137.742,-114.027 129.688,-106.585 133.001,-112.44 128.259,-110.852 128.259,-110.852 128.259,-110.852 133.001,-112.44 126.831,-115.119 137.742,-114.027 137.742,-114.027"/>
</g>
<!-- Article&#45;&gt;Resource -->
<g id="edge32" class="edge"><title>Article&#45;&gt;Resource</title>
<path fill="none" stroke="#48cf09" d="M676.633,-179.144C708.587,-172.877 746.228,-162.996 756,-150 761.61,-142.539 762.23,-132.798 760.843,-123.59"/>
<ellipse fill="none" stroke="#48cf09" cx="672.581" cy="-179.914" rx="4.00001" ry="4.00001"/>
<polygon fill="#48cf09" stroke="#48cf09" points="760.784,-123.326 762.975,-112.582 759.684,-118.449 758.585,-113.571 758.585,-113.571 758.585,-113.571 759.684,-118.449 754.195,-114.561 760.784,-123.326 760.784,-123.326"/>
</g>
<!-- Article&#45;&gt;Trigger -->
<g id="edge24" class="edge"><title>Article&#45;&gt;Trigger</title>
<path fill="none" stroke="#f5356f" d="M678.27,-181.568C729.195,-175.604 810.069,-164.86 879,-150 907.466,-143.863 913.722,-138.955 942,-132 980.343,-122.57 990.819,-124.066 1029,-114 1033.7,-112.762 1038.57,-111.37 1043.41,-109.917"/>
<ellipse fill="none" stroke="#f5356f" cx="674.024" cy="-182.06" rx="4.00001" ry="4.00001"/>
<polygon fill="#f5356f" stroke="#f5356f" points="1043.69,-109.832 1054.57,-111.177 1048.46,-108.355 1053.24,-106.878 1053.24,-106.878 1053.24,-106.878 1048.46,-108.355 1051.91,-102.579 1043.69,-109.832 1043.69,-109.832"/>
</g>
<!-- Trackback -->
<g id="node16" class="node"><title>Trackback</title>
<ellipse fill="none" stroke="black" cx="400" cy="-19" rx="58.8978" ry="18.3848"/>
<text text-anchor="middle" x="400" y="-15.4" font-family="Times Roman,serif" font-size="14.00">Trackback</text>
</g>
<!-- Article&#45;&gt;Trackback -->
<g id="edge28" class="edge"><title>Article&#45;&gt;Trackback</title>
<path fill="none" stroke="#abe64b" d="M589.032,-171.555C584.682,-170.193 580.277,-168.967 576,-168 534.633,-158.646 417.793,-178.07 386,-150 357.532,-124.866 371.879,-77.2311 385.48,-46.854"/>
<ellipse fill="none" stroke="#abe64b" cx="592.969" cy="-172.864" rx="4.00001" ry="4.00001"/>
<polygon fill="#abe64b" stroke="#abe64b" points="385.554,-46.6955 393.885,-39.565 387.684,-42.1718 389.814,-37.6481 389.814,-37.6481 389.814,-37.6481 387.684,-42.1718 385.743,-35.7312 385.554,-46.6955 385.554,-46.6955"/>
</g>
<!-- Article&#45;&gt;Trackback -->
<g id="edge40" class="edge"><title>Article&#45;&gt;Trackback</title>
<path fill="none" stroke="#c58c7f" d="M587.755,-172.126C583.79,-170.711 579.821,-169.315 576,-168 502.242,-142.61 457.822,-174.839 409,-114 394.254,-95.6251 393.114,-68.3488 395.014,-47.7311"/>
<ellipse fill="none" stroke="#c58c7f" cx="591.571" cy="-173.498" rx="4.00001" ry="4.00001"/>
<polygon fill="#c58c7f" stroke="#c58c7f" points="395.033,-47.5671 400.696,-38.1765 395.631,-42.603 396.228,-37.6388 396.228,-37.6388 396.228,-37.6388 395.631,-42.603 391.761,-37.1011 395.033,-47.5671 395.033,-47.5671"/>
<text text-anchor="middle" x="482.5" y="-91.4" font-family="Times Roman,serif" font-size="14.00">published_trackbacks</text>
</g>
<!-- Ping -->
<g id="node22" class="node"><title>Ping</title>
<ellipse fill="none" stroke="black" cx="219" cy="-95" rx="33.234" ry="18.3848"/>
<text text-anchor="middle" x="219" y="-91.4" font-family="Times Roman,serif" font-size="14.00">Ping</text>
</g>
<!-- Article&#45;&gt;Ping -->
<g id="edge26" class="edge"><title>Article&#45;&gt;Ping</title>
<path fill="none" stroke="#68da97" d="M589.235,-171.501C584.822,-170.138 580.348,-168.926 576,-168 463.143,-143.963 427.557,-183.04 317,-150 291.987,-142.525 266.348,-127.838 247.571,-115.52"/>
<ellipse fill="none" stroke="#68da97" cx="593.273" cy="-172.836" rx="4.00001" ry="4.00001"/>
<polygon fill="#68da97" stroke="#68da97" points="247.492,-115.467 241.708,-106.151 243.344,-112.676 239.196,-109.884 239.196,-109.884 239.196,-109.884 243.344,-112.676 236.684,-113.618 247.492,-115.467 247.492,-115.467"/>
</g>
<!-- Article&#45;&gt;Feedback -->
<g id="edge30" class="edge"><title>Article&#45;&gt;Feedback</title>
<path fill="none" stroke="#12757b" d="M607.801,-162.525C605.422,-158.542 603.361,-154.304 602,-150 599.167,-141.042 600.9,-131.334 604.255,-122.603"/>
<ellipse fill="none" stroke="#12757b" cx="610.133" cy="-166.045" rx="4.00002" ry="4.00002"/>
<polygon fill="#12757b" stroke="#12757b" points="604.381,-122.331 612.661,-115.141 606.479,-117.792 608.576,-113.253 608.576,-113.253 608.576,-113.253 606.479,-117.792 604.491,-111.365 604.381,-122.331 604.381,-122.331"/>
</g>
<!-- Article&#45;&gt;Feedback -->
<g id="edge42" class="edge"><title>Article&#45;&gt;Feedback</title>
<path fill="none" stroke="#2e0981" d="M623.211,-160.33C622.725,-156.864 622.301,-153.354 622,-150 621.238,-141.506 620.886,-132.246 620.751,-123.787"/>
<ellipse fill="none" stroke="#2e0981" cx="623.819" cy="-164.289" rx="4.00001" ry="4.00001"/>
<polygon fill="#2e0981" stroke="#2e0981" points="620.749,-123.62 625.18,-113.589 620.715,-118.62 620.68,-113.62 620.68,-113.62 620.68,-113.62 620.715,-118.62 616.18,-113.651 620.749,-123.62 620.749,-123.62"/>
<text text-anchor="middle" x="689" y="-137.4" font-family="Times Roman,serif" font-size="14.00">published_feedback</text>
</g>
<!-- Comment -->
<g id="node25" class="node"><title>Comment</title>
<ellipse fill="none" stroke="black" cx="843" cy="-19" rx="58.1882" ry="18.3848"/>
<text text-anchor="middle" x="843" y="-15.4" font-family="Times Roman,serif" font-size="14.00">Comment</text>
</g>
<!-- Article&#45;&gt;Comment -->
<g id="edge36" class="edge"><title>Article&#45;&gt;Comment</title>
<path fill="none" stroke="#3730c1" d="M679.176,-184.567C726.022,-180.97 796.581,-172.06 854,-150 867.81,-144.694 868.194,-137.315 882,-132 927.822,-114.359 959.235,-151.441 991,-114 1023.17,-76.082 954.508,-47.9602 900.289,-32.5169"/>
<ellipse fill="none" stroke="#3730c1" cx="674.992" cy="-184.87" rx="4" ry="4"/>
<polygon fill="#3730c1" stroke="#3730c1" points="900.001,-32.4378 891.556,-25.443 895.181,-31.1095 890.361,-29.7813 890.361,-29.7813 890.361,-29.7813 895.181,-31.1095 889.165,-34.1197 900.001,-32.4378 900.001,-32.4378"/>
</g>
<!-- Article&#45;&gt;Comment -->
<g id="edge38" class="edge"><title>Article&#45;&gt;Comment</title>
<path fill="none" stroke="#ddfe07" d="M677.092,-180.099C706.134,-174.671 742.988,-165.375 773,-150 795.183,-138.636 802.438,-134.912 816,-114 828.97,-94.0015 835.815,-67.7088 839.363,-47.855"/>
<ellipse fill="none" stroke="#ddfe07" cx="673.057" cy="-180.823" rx="4.00001" ry="4.00001"/>
<polygon fill="#ddfe07" stroke="#ddfe07" points="839.385,-47.7213 845.416,-38.5631 840.179,-42.7848 840.973,-37.8483 840.973,-37.8483 840.973,-37.8483 840.179,-42.7848 836.531,-37.1335 839.385,-47.7213 839.385,-47.7213"/>
<text text-anchor="middle" x="905" y="-91.4" font-family="Times Roman,serif" font-size="14.00">published_comments</text>
</g>
<!-- Tag -->
<g id="node30" class="node"><title>Tag</title>
<ellipse fill="none" stroke="black" cx="298" cy="-95" rx="27.7881" ry="18.3848"/>
<text text-anchor="middle" x="298" y="-91.4" font-family="Times Roman,serif" font-size="14.00">Tag</text>
</g>
<!-- Article&#45;&gt;Tag -->
<g id="edge44" class="edge"><title>Article&#45;&gt;Tag</title>
<path fill="none" stroke="#54737b" d="M587.24,-170.925C583.478,-169.802 579.693,-168.8 576,-168 524.594,-156.87 386.224,-175.095 340,-150 328.204,-143.596 318.705,-132.307 311.744,-121.616"/>
<polygon fill="#54737b" stroke="#54737b" points="587.556,-171.028 595.669,-178.406 592.31,-172.578 597.063,-174.127 597.063,-174.127 597.063,-174.127 592.31,-172.578 598.458,-169.849 587.556,-171.028 587.556,-171.028"/>
<polygon fill="#54737b" stroke="#54737b" points="311.654,-121.466 310.356,-110.577 309.077,-117.181 306.5,-112.897 306.5,-112.897 306.5,-112.897 309.077,-117.181 302.644,-115.216 311.654,-121.466 311.654,-121.466"/>
</g>
<!-- Feedback::States -->
<g id="node15" class="node"><title>Feedback::States</title>
<polygon fill="none" stroke="black" stroke-dasharray="1,5" points="1896,-401 1762,-401 1762,-365 1896,-365 1896,-401"/>
<text text-anchor="middle" x="1829" y="-379.4" font-family="Times Roman,serif" font-size="14.00">Feedback::States</text>
</g>
<!-- WebNotifier -->
<g id="node17" class="node"><title>WebNotifier</title>
<polygon fill="none" stroke="black" points="2030,-281 1932,-281 1932,-245 2030,-245 2030,-281"/>
<text text-anchor="middle" x="1981" y="-259.4" font-family="Times Roman,serif" font-size="14.00">WebNotifier</text>
</g>
<!-- EmailNotifier -->
<g id="node18" class="node"><title>EmailNotifier</title>
<polygon fill="none" stroke="black" points="2152,-281 2048,-281 2048,-245 2152,-245 2152,-281"/>
<text text-anchor="middle" x="2100" y="-259.4" font-family="Times Roman,serif" font-size="14.00">EmailNotifier</text>
</g>
<!-- Blog -->
<g id="node19" class="node"><title>Blog</title>
<ellipse fill="none" stroke="black" cx="2217" cy="-383" rx="33.234" ry="18.3848"/>
<text text-anchor="middle" x="2217" y="-379.4" font-family="Times Roman,serif" font-size="14.00">Blog</text>
</g>
<!-- Article::States -->
<g id="node20" class="node"><title>Article::States</title>
<polygon fill="none" stroke="black" stroke-dasharray="1,5" points="2382,-401 2268,-401 2268,-365 2382,-365 2382,-401"/>
<text text-anchor="middle" x="2325" y="-379.4" font-family="Times Roman,serif" font-size="14.00">Article::States</text>
</g>
<!-- Redirect&#45;&gt;Redirection -->
<g id="edge54" class="edge"><title>Redirect&#45;&gt;Redirection</title>
<path fill="none" stroke="#e6f55e" d="M1067.04,-236.376C1065.55,-229.7 1063.94,-222.509 1062.43,-215.736"/>
<ellipse fill="none" stroke="#e6f55e" cx="1067.92" cy="-240.31" rx="4.00001" ry="4.00001"/>
<polygon fill="#e6f55e" stroke="#e6f55e" points="1062.34,-215.329 1064.55,-204.588 1061.25,-210.45 1060.15,-205.57 1060.15,-205.57 1060.15,-205.57 1061.25,-210.45 1055.76,-206.553 1062.34,-215.329 1062.34,-215.329"/>
</g>
<!-- Feedback&#45;&gt;Trackback -->
<g id="edge48" class="edge"><title>Feedback&#45;&gt;Trackback</title>
<path fill="none" stroke="black" d="M581.998,-81.5877C542.098,-67.8661 480.4,-46.6489 440.103,-32.7912"/>
</g>
<!-- Feedback&#45;&gt;Comment -->
<g id="edge58" class="edge"><title>Feedback&#45;&gt;Comment</title>
<path fill="none" stroke="black" d="M659.923,-81.6748C700.214,-67.8818 762.825,-46.4473 803.373,-32.566"/>
</g>
<!-- PageCache -->
<g id="node24" class="node"><title>PageCache</title>
<polygon fill="none" stroke="black" points="2492,-401 2400,-401 2400,-365 2492,-365 2492,-401"/>
<text text-anchor="middle" x="2446" y="-379.4" font-family="Times Roman,serif" font-size="14.00">PageCache</text>
</g>
<!-- BlogSweeper -->
<g id="node26" class="node"><title>BlogSweeper</title>
<polygon fill="none" stroke="black" points="2749,-281 2643,-281 2643,-245 2749,-245 2749,-281"/>
<text text-anchor="middle" x="2696" y="-259.4" font-family="Times Roman,serif" font-size="14.00">BlogSweeper</text>
</g>
<!-- Sidebar -->
<g id="node29" class="node"><title>Sidebar</title>
<ellipse fill="none" stroke="black" cx="2948" cy="-383" rx="48.0833" ry="18.3848"/>
<text text-anchor="middle" x="2948" y="-379.4" font-family="Times Roman,serif" font-size="14.00">Sidebar</text>
</g>
<!-- User&#45;&gt;Notification -->
<g id="edge62" class="edge"><title>User&#45;&gt;Notification</title>
<path fill="none" stroke="#96fde4" d="M606.811,-244.103C596.616,-237.504 584.925,-230.201 574,-224 564.149,-218.409 553.345,-212.751 543.11,-207.599"/>
<ellipse fill="none" stroke="#96fde4" cx="610.252" cy="-246.351" rx="4.00002" ry="4.00002"/>
<polygon fill="#96fde4" stroke="#96fde4" points="542.868,-207.478 535.918,-198.996 538.391,-205.252 533.915,-203.025 533.915,-203.025 533.915,-203.025 538.391,-205.252 531.911,-207.055 542.868,-207.478 542.868,-207.478"/>
</g>
<!-- User&#45;&gt;Content -->
<g id="edge64" class="edge"><title>User&#45;&gt;Content</title>
<path fill="none" stroke="#d8184e" d="M625.904,-291.295C624.641,-300.832 625.556,-310.855 632,-318 658.035,-346.867 769.955,-321.445 806,-336 818.876,-341.2 831.279,-350.035 841.432,-358.651"/>
<polygon fill="#d8184e" stroke="#d8184e" points="625.946,-291.091 632.377,-282.209 626.958,-286.194 627.97,-281.298 627.97,-281.298 627.97,-281.298 626.958,-286.194 623.563,-280.387 625.946,-291.091 625.946,-291.091"/>
<polygon fill="#d8184e" stroke="#d8184e" points="841.589,-358.791 846.066,-368.801 845.324,-362.115 849.058,-365.44 849.058,-365.44 849.058,-365.44 845.324,-362.115 852.05,-362.079 841.589,-358.791 841.589,-358.791"/>
<text text-anchor="middle" x="686" y="-305.4" font-family="Times Roman,serif" font-size="14.00">notify_contents</text>
</g>
<!-- User&#45;&gt;Article -->
<g id="edge66" class="edge"><title>User&#45;&gt;Article</title>
<path fill="none" stroke="#4b1261" d="M632.52,-236.073C631.91,-229.449 631.254,-222.332 630.637,-215.63"/>
<ellipse fill="none" stroke="#4b1261" cx="632.903" cy="-240.23" rx="4" ry="4"/>
<polygon fill="#4b1261" stroke="#4b1261" points="630.628,-215.528 634.191,-205.158 630.169,-210.549 629.71,-205.57 629.71,-205.57 629.71,-205.57 630.169,-210.549 625.229,-205.983 630.628,-215.528 630.628,-215.528"/>
</g>
<!-- ConfigManager -->
<g id="node32" class="node"><title>ConfigManager</title>
<polygon fill="none" stroke="black" stroke-dasharray="1,5" points="3134,-401 3014,-401 3014,-365 3134,-365 3134,-401"/>
<text text-anchor="middle" x="3074" y="-379.4" font-family="Times Roman,serif" font-size="14.00">ConfigManager</text>
</g>
<!-- ActionMailer::Base -->
<g id="node34" class="node"><title>ActionMailer::Base</title>
<ellipse fill="none" stroke="black" cx="1210" cy="-383" rx="101.823" ry="18.3848"/>
<text text-anchor="middle" x="1210" y="-379.4" font-family="Times Roman,serif" font-size="14.00">ActionMailer::Base</text>
</g>
<!-- ActionMailer::Base&#45;&gt;NotificationMailer -->
<g id="edge4" class="edge"><title>ActionMailer::Base&#45;&gt;NotificationMailer</title>
<path fill="none" stroke="black" d="M1210,-364.25C1210,-341.574 1210,-303.663 1210,-281.225"/>
</g>
<!-- ActiveRecord::Observer -->
<g id="node58" class="node"><title>ActiveRecord::Observer</title>
<ellipse fill="none" stroke="black" cx="2040" cy="-383" rx="125.865" ry="18.3848"/>
<text text-anchor="middle" x="2040" y="-379.4" font-family="Times Roman,serif" font-size="14.00">ActiveRecord::Observer</text>
</g>
<!-- ActiveRecord::Observer&#45;&gt;WebNotifier -->
<g id="edge50" class="edge"><title>ActiveRecord::Observer&#45;&gt;WebNotifier</title>
<path fill="none" stroke="black" d="M2030.91,-364.513C2019.79,-341.897 2001.08,-303.847 1990,-281.311"/>
</g>
<!-- ActiveRecord::Observer&#45;&gt;EmailNotifier -->
<g id="edge52" class="edge"><title>ActiveRecord::Observer&#45;&gt;EmailNotifier</title>
<path fill="none" stroke="black" d="M2049.24,-364.513C2060.55,-341.897 2079.58,-303.847 2090.84,-281.311"/>
</g>
<!-- ActionController::Caching::Sweeper -->
<g id="node64" class="node"><title>ActionController::Caching::Sweeper</title>
<ellipse fill="none" stroke="black" cx="2696" cy="-383" rx="185.969" ry="18.3848"/>
<text text-anchor="middle" x="2696" y="-379.4" font-family="Times Roman,serif" font-size="14.00">ActionController::Caching::Sweeper</text>
</g>
<!-- ActionController::Caching::Sweeper&#45;&gt;BlogSweeper -->
<g id="edge60" class="edge"><title>ActionController::Caching::Sweeper&#45;&gt;BlogSweeper</title>
<path fill="none" stroke="black" d="M2696,-364.25C2696,-341.574 2696,-303.663 2696,-281.225"/>
</g>
</g>
</svg>
